<svg xmlns="http://www.w3.org/2000/svg" width="132.02" height="20" viewBox="0 0 132.02 20">
  <g id="Group_73" data-name="Group 73" transform="translate(0 -0.025)">
    <path id="Path_1" data-name="Path 1" d="M122.466.2a7.468,7.468,0,1,1,.164,14.933A7.36,7.36,0,0,1,115,7.748,7.216,7.216,0,0,1,122.466.2Zm4.595,7.467a4.579,4.579,0,0,0-.821-2.708,4.242,4.242,0,0,0-7.385-.082,5.471,5.471,0,0,0,.246,5.99,4.224,4.224,0,0,0,6.236.656A5.424,5.424,0,0,0,127.061,7.666Z" transform="translate(-20.641 -0.031)" fill="rgba(0,0,0,0.8)"/>
    <path id="Path_2" data-name="Path 2" d="M92.721,10.794l1.969,1.559a.25.25,0,0,1,0,.328A7.648,7.648,0,0,1,81.4,7.266,7.825,7.825,0,0,1,87.306.456c2.626-.656,5.826.328,7.138,2.215a.157.157,0,0,1-.082.246L92.557,4.476a.2.2,0,0,1-.328-.082c-.082-.082-.082-.164-.164-.246a3.962,3.962,0,0,0-6.236.164,5.117,5.117,0,0,0,.574,7.3,4.079,4.079,0,0,0,5.579-.328,3.568,3.568,0,0,1,.574-.492C92.557,10.712,92.639,10.712,92.721,10.794Z" transform="translate(-14.608 -0.041)" fill="rgba(0,0,0,0.8)"/>
    <path id="Path_3" data-name="Path 3" d="M136.428.5h2.462a.218.218,0,0,1,.246.246V12.233a.218.218,0,0,0,.246.246h6.072a.218.218,0,0,1,.246.246v1.887a.218.218,0,0,1-.246.246h-9.108a.218.218,0,0,1-.246-.246V.746C136.182.664,136.346.5,136.428.5Z" transform="translate(-24.428 -0.085)" fill="rgba(0,0,0,0.8)"/>
    <path id="Path_4" data-name="Path 4" d="M55.372,15.1h-2.79a.08.08,0,0,1-.082-.082V.575c0-.082.082-.164.164-.082,2.462,2.544,4.841,5.005,7.221,7.467,0,.082.082.082.164,0C62.428,5.5,64.808,3.036,67.187.493c.082-.082.164,0,.164.082V15.016a.08.08,0,0,1-.082.082H64.562a.08.08,0,0,1-.082-.082V7.385c-.164-.082-.164-.082-.246-.082-1.395,1.395-2.79,2.79-4.185,4.267h-.164C58.49,10.175,57.095,8.7,55.7,7.221c-.082-.082-.164,0-.164.082v7.713C55.454,15.016,55.454,15.1,55.372,15.1Z" transform="translate(-9.423 -0.078)" fill="rgba(0,0,0,0.8)"/>
    <path id="Path_5" data-name="Path 5" d="M38.566.2a7.468,7.468,0,1,1,.164,14.933A7.377,7.377,0,0,1,31.1,7.666C31.018,3.4,34.136.282,38.566.2ZM34.053,7.666A10.261,10.261,0,0,0,34.3,9.225a4.511,4.511,0,0,0,3.118,3.282,4.2,4.2,0,0,0,4.267-1.231,5.214,5.214,0,0,0,.246-6.728,4.213,4.213,0,0,0-4.267-1.641C35.53,3.318,34.136,5.2,34.053,7.666Z" transform="translate(-5.582 -0.031)" fill="rgba(0,0,0,0.8)"/>
    <path id="Path_6" data-name="Path 6" d="M7.138.087c2.3,4.841,4.595,9.6,6.892,14.359.082.082,0,.164-.082.164H12.308c-.41,0-.985.164-1.231-.082-.328-.164-.41-.738-.574-1.149-.246-.574-.492-1.149-.738-1.641a.451.451,0,0,0-.41-.246H4.759a.45.45,0,0,0-.492.328c-.328.821-.656,1.559-.985,2.379a.731.731,0,0,1-.656.41H.164C0,14.692,0,14.528,0,14.446,2.3,9.687,4.595,4.928,6.892.087,6.974,0,7.138,0,7.138.087ZM6.892,5.83,5.5,8.948c0,.082,0,.164.082.164H8.287c.082,0,.164-.082.082-.164L7.138,5.83C7.138,5.666,6.974,5.666,6.892,5.83Z" transform="translate(0 0)" fill="rgba(0,0,0,0.8)"/>
    <path id="Path_7" data-name="Path 7" d="M16.4,2.733V.764A.176.176,0,0,1,16.564.6H27.313a.176.176,0,0,1,.164.164V2.815a.176.176,0,0,1-.164.164H23.621a.176.176,0,0,0-.164.164V14.713a.176.176,0,0,1-.164.164H20.667a.176.176,0,0,1-.164-.164V3.144a.176.176,0,0,0-.164-.164H16.646A.218.218,0,0,1,16.4,2.733Z" transform="translate(-2.944 -0.103)" fill="rgba(0,0,0,0.8)"/>
    <path id="Path_8" data-name="Path 8" d="M107.62.4h2.626a.262.262,0,0,1,.246.246V13.364a6.606,6.606,0,0,1-5.005,6.482,9.844,9.844,0,0,1-1.641.246.218.218,0,0,1-.246-.246V17.713c0-.082.082-.246.164-.246a2.272,2.272,0,0,0,.738-.082,3.687,3.687,0,0,0,2.79-3.282c0-.328.082-.738.082-1.067V.646A.262.262,0,0,1,107.62.4Z" transform="translate(-18.595 -0.067)" fill="rgba(0,0,0,0.8)"/>
    <path id="Path_9" data-name="Path 9" d="M74.864.5H77.49a.176.176,0,0,1,.164.164V14.695a.176.176,0,0,1-.164.164H74.864a.176.176,0,0,1-.164-.164V.664C74.7.582,74.7.5,74.864.5Z" transform="translate(-13.408 -0.085)" fill="rgba(0,0,0,0.8)"/>
    <g id="Group_1" data-name="Group 1" transform="translate(120.944 0.497)">
      <path id="Path_10" data-name="Path 10" d="M151.256,2.979h-3.692a.176.176,0,0,1-.164-.164V.764A.176.176,0,0,1,147.564.6h10.749a.176.176,0,0,1,.164.164V2.815a.176.176,0,0,1-.164.164h-3.692a.176.176,0,0,0-.164.164V14.713a.176.176,0,0,1-.164.164h-2.626a.176.176,0,0,1-.164-.164V3.144C151.5,3.062,151.338,2.979,151.256,2.979Z" transform="translate(-147.4 -0.6)" fill="rgba(0,0,0,0.8)"/>
    </g>
  </g>
</svg>
